# xmcd
#
# Track frame offsets: 
#        150
#        12640
#        27316
#        42088
#        57508
#        71929
#        93697
#        106027
#        122134
#        138898
#        155542
#        171109
#        190999
#
# Disc length: 2710 seconds
#
# Revision: 1
# Processed by: cddbd v1.5.2PL0 Copyright (c) Steve Scherf et al.
# Submitted via: ExactAudioCopy v0.95b3
#
DISCID=b70a940d
DTITLE=Bremner Duthie - The Sky Was Blue
DYEAR=2009
DGENRE=Jazz
TTITLE0=Lover Come Back to Me
TTITLE1=Again
TTITLE2=Court and Spark
TTITLE3=Chelsea Hotel
TTITLE4=Secret Heart
TTITLE5=Pale Blue Eyes
TTITLE6=Some of These Days
TTITLE7=Whisper Not
TTITLE8=Angel Eyes
TTITLE9=Love Me or Leave Me
TTITLE10=Sweethearts on Parade
TTITLE11=Heaven
TTITLE12=Court and Spark, slight return
EXTD=YEAR: 2009
EXTT0=
EXTT1=
EXTT2=
EXTT3=
EXTT4=
EXTT5=
EXTT6=
EXTT7=
EXTT8=
EXTT9=
EXTT10=
EXTT11=
EXTT12=
PLAYORDER=
